<svg xmlns="http://www.w3.org/2000/svg" xmlns:xlink="http://www.w3.org/1999/xlink" width="108" height="108" viewBox="0 0 108 108">
  <defs>
    <filter id="Path_46" x="0" y="0" width="108" height="108" filterUnits="userSpaceOnUse">
      <feOffset dy="3" input="SourceAlpha"/>
      <feGaussianBlur stdDeviation="3" result="blur"/>
      <feFlood flood-opacity="0.161"/>
      <feComposite operator="in" in2="blur"/>
      <feComposite in="SourceGraphic"/>
    </filter>
  </defs>
  <g transform="matrix(1, 0, 0, 1, 0, 0)" filter="url(#Path_46)">
    <g id="Path_46-2" data-name="Path 46" transform="translate(9 6)" fill="#fff">
      <path d="M 45 88 C 39.19416046142578 88 33.56304168701172 86.86335754394531 28.26308059692383 84.62166595458984 C 23.14290618896484 82.45601654052734 18.54409408569336 79.35527801513672 14.59441375732422 75.40558624267578 C 10.64472007751465 71.45590972900391 7.543986797332764 66.85709381103516 5.378333568572998 61.73691940307617 C 3.136640071868896 56.43695831298828 2 50.80583953857422 2 45 C 2 39.19416046142578 3.136640071868896 33.56304168701172 5.378333568572998 28.26308059692383 C 7.543986797332764 23.14290618896484 10.64472007751465 18.54409408569336 14.59441375732422 14.59441375732422 C 18.54409408569336 10.64472007751465 23.14290618896484 7.543986797332764 28.26308059692383 5.378333568572998 C 33.56304168701172 3.136640071868896 39.19416046142578 2 45 2 C 50.80583953857422 2 56.43695831298828 3.136640071868896 61.73691940307617 5.378333568572998 C 66.85709381103516 7.543986797332764 71.45590972900391 10.64472007751465 75.40558624267578 14.59441375732422 C 79.35527801513672 18.54409408569336 82.45601654052734 23.14290618896484 84.62166595458984 28.26308059692383 C 86.86335754394531 33.56304168701172 88 39.19416046142578 88 45 C 88 50.80583953857422 86.86335754394531 56.43695831298828 84.62166595458984 61.73691940307617 C 82.45601654052734 66.85709381103516 79.35527801513672 71.45590972900391 75.40558624267578 75.40558624267578 C 71.45590972900391 79.35527801513672 66.85709381103516 82.45601654052734 61.73691940307617 84.62166595458984 C 56.43695831298828 86.86335754394531 50.80583953857422 88 45 88 Z" stroke="none"/>
      <path d="M 45 4 C 39.46327590942383 4 34.09429168701172 5.083473205566406 29.04216766357422 7.2203369140625 C 24.160400390625 9.28515625 19.77527618408203 12.24196624755859 16.00861358642578 16.00861358642578 C 12.24196624755859 19.77527618408203 9.28515625 24.160400390625 7.2203369140625 29.04216766357422 C 5.083473205566406 34.09429168701172 4 39.46327590942383 4 45 C 4 50.53672409057617 5.083473205566406 55.90570831298828 7.2203369140625 60.95781707763672 C 9.28515625 65.83958435058594 12.24196624755859 70.22470855712891 16.00861358642578 73.99137115478516 C 19.77527618408203 77.75803375244141 24.160400390625 80.71484375 29.04218292236328 82.7796630859375 C 34.09429168701172 84.91651916503906 39.46327590942383 86 45 86 C 50.53672409057617 86 55.90570831298828 84.91651916503906 60.95781707763672 82.7796630859375 C 65.83958435058594 80.71484375 70.22470855712891 77.75803375244141 73.99137115478516 73.99137115478516 C 77.75803375244141 70.22470855712891 80.71484375 65.83958435058594 82.7796630859375 60.95781707763672 C 84.91651916503906 55.90570831298828 86 50.53672409057617 86 45 C 86 39.46327590942383 84.91651916503906 34.09429168701172 82.7796630859375 29.04218292236328 C 80.71484375 24.160400390625 77.75803375244141 19.77527618408203 73.99137115478516 16.00861358642578 C 70.22470855712891 12.24196624755859 65.83958435058594 9.28515625 60.95781707763672 7.2203369140625 C 55.90570831298828 5.083473205566406 50.53672409057617 4 45 4 M 45 0 C 69.85279846191406 0 90 20.14718627929688 90 45 C 90 69.85279846191406 69.85279846191406 90 45 90 C 20.14718627929688 90 0 69.85279846191406 0 45 C 0 20.14718627929688 20.14718627929688 0 45 0 Z" stroke="none" fill="#cbcbcb"/>
    </g>
  </g>
</svg>
