<svg xmlns="http://www.w3.org/2000/svg" width="131.313" height="50.065" viewBox="0 0 131.313 50.065">
  <g id="Path_71" data-name="Path 71" transform="translate(7.33 6.065)" fill="none">
    <path d="M0,37.935,59.524,44,117,37.935c12.15,0,6.387-5.7-1.736-22s-8.114-22-20.264-22L59.524-1.937,22-6.065c-12.15,0-9.41,4.418-19.55,23.8S-12.15,37.935,0,37.935Z" stroke="none"/>
    <path d="M 59.52209091186523 42.99463272094727 L 116.8950576782227 36.94010162353516 L 116.947380065918 36.93457794189453 L 117 36.93457794189453 C 120.3384399414063 36.93457794189453 122.2260894775391 36.49241256713867 122.7708358764648 35.58283233642578 C 123.1626510620117 34.92859268188477 123.0106582641602 33.73639297485352 122.3061981201172 31.93813896179199 C 121.5369644165039 29.97453880310059 120.1961288452148 27.47039413452148 118.4985809326172 24.30002975463867 C 117.2607116699219 21.98815727233887 115.8576736450195 19.36783027648926 114.3690719604492 16.38057518005371 C 112.9094009399414 13.4513578414917 111.7151641845703 10.87161254882813 110.661491394043 8.595540046691895 C 108.2655639648438 3.419975996017456 106.6827239990234 0.0007760653388686478 104.5185470581055 -2.132205724716187 C 102.413444519043 -4.206958770751953 99.66964721679688 -5.058348178863525 95.05757141113281 -5.065379619598389 L 59.63943481445313 -0.9437148571014404 L 59.52700042724609 -0.9306239485740662 L 59.41447448730469 -0.9430057406425476 L 21.94544410705566 -5.065393924713135 C 17.73835372924805 -5.060841083526611 15.58765697479248 -4.524993419647217 14.02027225494385 -3.094078540802002 C 12.36636352539063 -1.584169387817383 11.19187259674072 1.137757897377014 9.414091110229492 5.257903575897217 C 7.963563442230225 8.619576454162598 6.158345222473145 12.80330371856689 3.336072683334351 18.19793891906738 C 0.8235454559326172 23.00050354003906 -1.380927324295044 26.7347583770752 -2.990563631057739 29.46139335632324 C -4.265345573425293 31.62079429626465 -5.272236347198486 33.32641220092773 -5.831581592559814 34.54226684570313 C -6.457381725311279 35.9025764465332 -6.33118200302124 36.24806594848633 -6.299527168273926 36.30350494384766 C -6.282527446746826 36.33328628540039 -6.097890853881836 36.59915924072266 -4.867072582244873 36.76179504394531 C -3.778127193450928 36.90566635131836 -2.197436332702637 36.93457794189453 0 36.93457794189453 L 0.05081818252801895 36.93457794189453 L 0.101381815969944 36.93972015380859 L 59.52209091186523 42.99463272094727 M 59.52383804321289 43.99999237060547 L 0 37.93457794189453 C -12.15027236938477 37.93457794189453 -7.689872741699219 37.1162109375 2.450000047683716 17.73437690734863 C 12.58987236022949 -1.647460341453552 9.849745750427246 -6.065423965454102 22 -6.065423965454102 L 59.52383804321289 -1.937005758285522 L 95 -6.065423965454102 C 107.1502532958984 -6.065423965454102 107.1411437988281 -0.3662057518959045 115.2641067504883 15.9345760345459 C 123.3870697021484 32.23535919189453 129.1502685546875 37.93457794189453 117 37.93457794189453 L 59.52383804321289 43.99999237060547 Z" stroke="none" fill="#707070"/>
  </g>
</svg>
