<svg xmlns="http://www.w3.org/2000/svg" width="91.51" height="46.026" viewBox="0 0 91.51 46.026">
  <g id="Path_74" data-name="Path 74" transform="translate(3.976 6.065)" fill="none">
    <path d="M2.014,34.384,41.436,39.96l41.1-5.576c8.689,0,4.568-5.239-1.241-20.225S75.5-6.065,66.807-6.065L41.436-2.27,14.6-6.065c-8.689,0-5.335,2.407-12.587,20.225S-6.675,34.384,2.014,34.384Z" stroke="none"/>
    <path d="M 41.43875122070313 38.95090866088867 L 82.40541076660156 33.39349746704102 L 82.47231292724609 33.38441467285156 L 82.53983306884766 33.38441467285156 C 84.60303497314453 33.38441467285156 85.86357116699219 33.0628547668457 86.28642272949219 32.42866897583008 C 87.18466186523438 31.08148384094238 85.56314086914063 27.18854904174805 83.31887817382813 21.80052375793457 C 82.43370056152344 19.67537689208984 81.43041229248047 17.26668357849121 80.36602020263672 14.52093601226807 C 79.32235717773438 11.82862949371338 78.46842193603516 9.45734977722168 77.71501159667969 7.365229606628418 C 76.00191497802734 2.608229875564575 74.87018585205078 -0.5344368815422058 73.330810546875 -2.484756946563721 C 71.87618255615234 -4.32770824432373 70.06357574462891 -5.054316997528076 66.88014984130859 -5.06529712677002 L 41.58380889892578 -1.281116843223572 L 41.43990325927734 -1.259596943855286 L 41.29582214355469 -1.279970288276672 L 14.53077983856201 -5.065369606018066 C 11.71958160400391 -5.061042308807373 10.50464630126953 -4.793291568756104 9.731303215026855 -4.012476921081543 C 8.846863746643066 -3.119490146636963 8.306610107421875 -1.316863536834717 7.411570072174072 1.669629812240601 C 6.509303092956543 4.680229663848877 5.27361011505127 8.803389549255371 2.940383195877075 14.53645610809326 C 2.579463243484497 15.42329597473145 2.232929944992065 16.2719898223877 1.90132999420166 17.08411026000977 C -0.1029500514268875 21.99277687072754 -1.551070094108582 25.53937721252441 -2.332336664199829 28.08794975280762 C -3.027536630630493 30.35578918457031 -3.155936717987061 31.77008247375488 -2.724896669387817 32.41167068481445 C -2.266829967498779 33.09349822998047 -0.8495367169380188 33.38441467285156 2.014156579971313 33.38441467285156 L 2.084529876708984 33.38441467285156 L 2.154209852218628 33.39426803588867 L 41.43875122070313 38.95090866088867 M 41.43586349487305 39.96045684814453 L 2.014156579971313 34.38441467285156 C -6.675083160400391 34.38441467285156 -5.237363338470459 31.97749710083008 2.014156579971313 14.15949630737305 C 9.265663146972656 -3.658516883850098 5.911530017852783 -6.065423488616943 14.60076999664307 -6.065423488616943 L 41.43586349487305 -2.270116806030273 L 66.80657958984375 -6.065423488616943 C 75.49582672119141 -6.065423488616943 75.48930358886719 -0.8260502219200134 81.29842376708984 14.15949630737305 C 87.1075439453125 29.14504241943359 91.22908020019531 34.38441467285156 82.53983306884766 34.38441467285156 L 41.43586349487305 39.96045684814453 Z" stroke="none" fill="#707070"/>
  </g>
</svg>
