<svg xmlns="http://www.w3.org/2000/svg" width="131.313" height="50.065" viewBox="0 0 131.313 50.065">
  <g id="Path_71" data-name="Path 71" transform="translate(7.33 6.065)" fill="#3aff00">
    <path d="M 59.52291870117188 43.49731826782227 L 0.050690907984972 37.43715667724609 L 0.02539999969303608 37.43457794189453 L 0 37.43457794189453 C -3.647581815719604 37.43457794189453 -6.265708923339844 37.37123107910156 -6.733745574951172 36.55141067504883 C -6.950036525726318 36.17255783081055 -6.807709217071533 35.46773910522461 -6.285818099975586 34.33330154418945 C -5.715781688690186 33.09423065185547 -4.753291130065918 31.46381187438965 -3.421145439147949 29.20721244812012 C -1.814254522323608 26.48523139953613 0.3864545524120331 22.75735855102539 2.893036365509033 17.96615791320801 C 5.70665454864502 12.58806705474854 7.507781982421875 8.413848876953125 8.954999923706055 5.059812545776367 C 10.75843620300293 0.8802306056022644 11.94985485076904 -1.880951166152954 13.6831636428833 -3.463351249694824 C 15.35818958282471 -4.99251651763916 17.60634231567383 -5.563055038452148 21.97266387939453 -5.56541633605957 L 59.46916198730469 -1.440005779266357 L 59.52541732788086 -1.433823943138123 L 59.58163452148438 -1.440351247787476 L 95.02895355224609 -5.565412998199463 C 99.80408477783203 -5.561827182769775 102.6564102172852 -4.669530868530273 104.8695297241211 -2.488314867019653 C 107.0983428955078 -0.2916239202022552 108.6963424682617 3.160321474075317 111.115234375 8.385503768920898 C 112.1674728393555 10.65850353240967 113.360107421875 13.23479461669922 114.8165969848633 16.1575756072998 C 116.3019256591797 19.13826751708984 117.703125 21.75517654418945 118.9393844604492 24.06401252746582 C 122.1549987792969 30.06957626342773 124.2793655395508 34.03708648681641 123.1997833251953 35.8397216796875 C 122.5481643676758 36.92779541015625 120.578125 37.43457794189453 117 37.43457794189453 L 116.9736938476563 37.43457794189453 L 116.9475250244141 37.43733978271484 L 59.52291870117188 43.49731826782227 Z" stroke="none"/>
    <path d="M 59.52209091186523 42.99463272094727 L 116.8950576782227 36.94010162353516 L 116.947380065918 36.93457794189453 L 117 36.93457794189453 C 120.3384399414063 36.93457794189453 122.2260894775391 36.49241256713867 122.7708358764648 35.58283233642578 C 123.1626510620117 34.92859268188477 123.0106582641602 33.73639297485352 122.3061981201172 31.93813896179199 C 121.5369644165039 29.97453880310059 120.1961288452148 27.47039413452148 118.4985809326172 24.30002975463867 C 117.2607116699219 21.98815727233887 115.8576736450195 19.36783027648926 114.3690719604492 16.38057518005371 C 112.9094009399414 13.4513578414917 111.7151641845703 10.87161254882813 110.661491394043 8.595540046691895 C 108.2655639648438 3.419975996017456 106.6827239990234 0.0007760653388686478 104.5185470581055 -2.132205724716187 C 102.413444519043 -4.206958770751953 99.66964721679688 -5.058348178863525 95.05757141113281 -5.065379619598389 L 59.63943481445313 -0.9437148571014404 L 59.52700042724609 -0.9306239485740662 L 59.41447448730469 -0.9430057406425476 L 21.94544410705566 -5.065393924713135 C 17.73835372924805 -5.060841083526611 15.58765697479248 -4.524993419647217 14.02027225494385 -3.094078540802002 C 12.36636352539063 -1.584169387817383 11.19187259674072 1.137757897377014 9.414091110229492 5.257903575897217 C 7.963563442230225 8.619576454162598 6.158345222473145 12.80330371856689 3.336072683334351 18.19793891906738 C 0.8235454559326172 23.00050354003906 -1.380927324295044 26.7347583770752 -2.990563631057739 29.46139335632324 C -4.265345573425293 31.62079429626465 -5.272236347198486 33.32641220092773 -5.831581592559814 34.54226684570313 C -6.457381725311279 35.9025764465332 -6.33118200302124 36.24806594848633 -6.299527168273926 36.30350494384766 C -6.282527446746826 36.33328628540039 -6.097890853881836 36.59915924072266 -4.867072582244873 36.76179504394531 C -3.778127193450928 36.90566635131836 -2.197436332702637 36.93457794189453 0 36.93457794189453 L 0.05081818252801895 36.93457794189453 L 0.101381815969944 36.93972015380859 L 59.52209091186523 42.99463272094727 M 59.52383804321289 43.99999237060547 L 0 37.93457794189453 C -12.15027236938477 37.93457794189453 -7.689872741699219 37.1162109375 2.450000047683716 17.73437690734863 C 12.58987236022949 -1.647460341453552 9.849745750427246 -6.065423965454102 22 -6.065423965454102 L 59.52383804321289 -1.937005758285522 L 95 -6.065423965454102 C 107.1502532958984 -6.065423965454102 107.1411437988281 -0.3662057518959045 115.2641067504883 15.9345760345459 C 123.3870697021484 32.23535919189453 129.1502685546875 37.93457794189453 117 37.93457794189453 L 59.52383804321289 43.99999237060547 Z" stroke="none" fill="#707070"/>
  </g>
</svg>
