<svg xmlns="http://www.w3.org/2000/svg" width="63.583" height="39.91" viewBox="0 0 63.583 39.91">
  <g id="Path_77" data-name="Path 77" transform="translate(3.976 6.065)" fill="red">
    <path d="M 27.57907295227051 33.33730697631836 L 0.2730979025363922 28.5172176361084 L 0.2299679070711136 28.50960922241211 L 0.1861779093742371 28.50960922241211 C -1.763462066650391 28.50960922241211 -2.730362176895142 28.27285766601563 -3.151162147521973 27.69242858886719 C -4.145262241363525 26.32122802734375 -2.780081987380981 22.14868927001953 -0.06030209362506866 13.83586883544922 C 0.1700679063796997 13.13177871704102 0.4107978940010071 12.39598846435547 0.6615378856658936 11.62710857391357 C 2.276397943496704 6.67521858215332 3.132177829742432 3.11163854598999 3.757037878036499 0.5096184611320496 C 4.393898010253906 -2.142341613769531 4.778297901153564 -3.743051528930664 5.446208000183105 -4.584651470184326 C 6.023986339569092 -5.312660217285156 6.895003795623779 -5.561841011047363 8.888073921203613 -5.56539249420166 L 27.49038696289063 -2.282031536102295 L 27.57980728149414 -2.266251564025879 L 27.66905784606934 -2.282911539077759 L 45.25125885009766 -5.565343379974365 C 47.51071548461914 -5.556595325469971 48.80590438842773 -4.899500370025635 49.86145782470703 -3.230521678924561 C 50.96300888061523 -1.488821506500244 51.75673675537109 1.261818408966064 52.95820617675781 5.42542839050293 C 53.48101806640625 7.237228393554688 54.0735969543457 9.290768623352051 54.79723739624023 11.6204080581665 C 55.53522872924805 13.99627876281738 56.23144912719727 16.08227920532227 56.84571838378906 17.9227180480957 C 57.77009963989258 20.69229888916016 58.50022888183594 22.8798885345459 58.86103820800781 24.53256797790527 C 59.21202850341797 26.14029884338379 59.18684768676758 27.15095901489258 58.78179931640625 27.71315765380859 C 58.39031600952148 28.25652885437012 57.55000686645508 28.50960922241211 56.13728713989258 28.50960922241211 L 56.09525680541992 28.50960922241211 L 56.05382919311523 28.5166187286377 L 27.57907295227051 33.33730697631836 Z" stroke="none"/>
    <path d="M 27.58084297180176 32.82989883422852 L 55.97036743164063 28.02363777160645 L 56.05323791503906 28.00960922241211 L 56.13728713989258 28.00960922241211 C 57.3414192199707 28.00960922241211 58.09466934204102 27.81153869628906 58.37611770629883 27.42088890075684 C 58.68354797363281 26.99417877197266 58.68233871459961 26.05828857421875 58.37253952026367 24.63920783996582 C 58.0174560546875 23.01273918151855 57.29107666015625 20.83637809753418 56.37143707275391 18.08101844787598 C 55.75639724731445 16.23824882507324 55.05928802490234 14.14960861206055 54.31973648071289 11.76872825622559 C 53.59459686279297 9.434258460998535 53.00127792358398 7.378138542175293 52.47780609130859 5.564058303833008 C 51.33096694946289 1.589748382568359 50.50235748291016 -1.281761527061462 49.43887710571289 -2.963261604309082 C 48.48358917236328 -4.473701477050781 47.35536193847656 -5.048887729644775 45.29611587524414 -5.06507682800293 L 27.76081848144531 -1.791401505470276 L 27.58230781555176 -1.758081555366516 L 27.40347862243652 -1.789641618728638 L 8.844996452331543 -5.065266132354736 C 6.841902256011963 -5.057539939880371 6.23956298828125 -4.779983043670654 5.837857723236084 -4.273821353912354 C 5.238667964935303 -3.518821477890015 4.863977909088135 -1.958561539649963 4.243217945098877 0.6263784170150757 C 3.616387844085693 3.236558437347412 2.757927894592285 6.811318397521973 1.136897921562195 11.78212833404541 C 0.8861079216003418 12.55116844177246 0.6453279256820679 13.28710842132568 0.4149079024791718 13.99134826660156 C -1.026352047920227 18.39646911621094 -2.067692041397095 21.57923889160156 -2.592382192611694 23.80556869506836 C -3.047842025756836 25.73820877075195 -3.098212003707886 26.91360855102539 -2.746352195739746 27.39894866943359 C -2.44017219543457 27.8212776184082 -1.535742044448853 28.00960922241211 0.1861779093742371 28.00960922241211 L 0.2737579047679901 28.00960922241211 L 0.3600079119205475 28.02483749389648 L 27.58084297180176 32.82989883422852 M 27.57729721069336 33.8447265625 L 0.1861779093742371 29.00960922241211 C -5.851312160491943 29.00960922241211 -4.852342128753662 26.92251777648926 0.1861779093742371 11.47208881378174 C 5.224698066711426 -3.978331565856934 2.894157886505127 -6.065431594848633 8.931648254394531 -6.065431594848633 L 27.57729721069336 -2.774421453475952 L 45.20544815063477 -6.065431594848633 C 51.24293899536133 -6.065431594848633 51.23840713500977 -1.522241592407227 55.27472686767578 11.47208881378174 C 59.31102752685547 24.4664192199707 62.17476654052734 29.00960922241211 56.13728713989258 29.00960922241211 L 27.57729721069336 33.8447265625 Z" stroke="none" fill="#707070"/>
  </g>
</svg>
