<svg xmlns="http://www.w3.org/2000/svg" viewBox="0 0 36 36">
  <defs>
    <style>
      .cls-1 {
        fill: #fff;
      }
    </style>
  </defs>
  <path id="ic_flare_24px" class="cls-1" d="M10.818,17.364H1v3.273h9.818Zm3.551-5.3L10.9,8.593,8.593,10.9l3.469,3.469ZM20.636,1H17.364v9.818h3.273Zm8.771,9.9L27.1,8.593l-3.469,3.469,2.307,2.307Zm-2.225,6.464v3.273H37V17.364ZM19,14.091A4.909,4.909,0,1,0,23.909,19,4.9,4.9,0,0,0,19,14.091Zm4.631,11.847L27.1,29.407,29.407,27.1l-3.469-3.469-2.307,2.307ZM8.593,27.1,10.9,29.407l3.469-3.469-2.307-2.307L8.593,27.1ZM17.364,37h3.273V27.182H17.364Z" transform="translate(-1 -1)"/>
</svg>
